<?xml version="1.0" encoding="utf-8"?>
<!-- Generator: Adobe Illustrator 21.0.0, SVG Export Plug-In . SVG Version: 6.00 Build 0)  -->
<svg version="1.1" id="Capa_1" xmlns="http://www.w3.org/2000/svg" xmlns:xlink="http://www.w3.org/1999/xlink" x="0px" y="0px"
	 viewBox="0 0 170 160" style="enable-background:new 0 0 170 160;" xml:space="preserve">
<style type="text/css">
	.st0{fill:#4C5BC0;}
	.st1{fill:#65C9D1;}
	.st2{fill:#50B08B;}
	.st3{fill:#86BA54;}
	.st4{fill:#87B742;}
	.st5{fill:#A0A3A4;}
</style>
<g>
	<path class="st3" d="M45.2,116.1c-0.8-0.1-1.6-0.3-2.3-0.5c-6.9-2.2-10.7-9.5-8.6-16.4c1.7-5.5,6.7-9.2,12.5-9.2
		c1.3,0,2.6,0.2,3.9,0.6l1.1,0.3l10.6-13.2l-0.6-1c-1.2-2-1.9-4.4-1.9-6.8c0-7.2,5.8-13.1,13-13.1c5.4,0,10.2,3.2,12.1,8.2l0.2,0.5
		l-0.5,0.7l18.4-4.9l-0.3-1.5c-0.5-3,0-6.1,1.5-8.8c2.3-4,6.7-6.6,11.3-6.6c2.2,0,4.5,0.6,6.4,1.7l1.4,0.8l11.2-16.4l-10,2.7
		l-0.9-3.2l15.6-4.2l4.1,15.5l-3.2,0.9l-2.4-8.9l-11.5,16.8l0.5,0.9c2.3,4,2.3,9,0,13c-0.3,0.6-0.7,1.1-1.2,1.6
		c-2.5,3.1-6.2,4.9-10.2,4.9c-2.3,0-4.6-0.6-6.6-1.8c-1.2-0.7-2.3-1.6-3.2-2.7l-0.7-0.8L86,70.5l-0.2,1.1c-0.3,1.8-0.9,4.2-2.3,6
		C80.8,81,77,83,72.9,83c-2.1,0-4.2-0.5-6.1-1.6l-1.2-0.7l-10,12.4l1,1.1c2.2,2.4,3.4,5.5,3.4,8.7c0,3.5-1.4,6.8-3.8,9.2
		c-2.5,2.5-5.7,3.8-9.2,3.8L45.2,116.1z M46.8,94.3c-2.5,0-4.9,1.1-6.6,3c-3.2,3.6-2.8,9.2,0.8,12.3c1.6,1.4,3.6,2.2,5.8,2.2
		c2.5,0,4.9-1.1,6.6-3c3.2-3.6,2.8-9.2-0.8-12.3l-0.7-0.5l-0.3-0.1c-0.3-0.1-0.5-0.2-0.7-0.4l-0.3-0.3l-0.2-0.1
		c-0.6-0.3-1.2-0.5-1.8-0.6v-0.1l-0.8-0.1L46.8,94.3z M72.9,61.2c-2.3,0-4.6,1-6.2,2.6c-3.4,3.4-3.3,9,0.1,12.4
		c1.7,1.6,3.8,2.5,6.1,2.5c4.8-0.1,8.7-3.9,8.7-8.7C81.7,65.2,77.7,61.2,72.9,61.2L72.9,61.2z M108.4,62.4c0.7,1.1,1.7,2.1,2.9,2.8
		c1.3,0.8,2.9,1.3,4.5,1.3c2.7,0,5.2-1.2,6.8-3.3c0.3-0.4,0.5-0.8,0.7-1.3c1.1-1.9,1.4-4.3,0.8-6.5c-0.6-2.3-2.1-4.1-4.1-5.3
		c-1.3-0.8-2.9-1.2-4.5-1.2c-0.8,0-1.6,0.1-2.4,0.3c-4.6,1.3-7.3,6.2-6,10.8c0.2,0.7,0.5,1.3,0.8,1.9l0.2,0.4L108.4,62.4z"/>
	<path class="st3" d="M20.4,149.7c-1.2,0-2.2-1-2.2-2.2v-13.3H5c-1.2,0-2.2-1-2.2-2.2c0-1.2,1-2.2,2.2-2.2h13.3V12.5
		c0-1.2,1-2.2,2.2-2.2c1.2,0,2.2,1,2.2,2.2v117.4H165c1.2,0,2.2,1,2.2,2.2c0,1.2-1,2.2-2.2,2.2H22.5v13.3
		C22.5,148.7,21.6,149.7,20.4,149.7z"/>
</g>
</svg>
