<?xml version="1.0" encoding="utf-8"?>
<!-- Generator: Adobe Illustrator 21.0.0, SVG Export Plug-In . SVG Version: 6.00 Build 0)  -->
<svg version="1.1" id="Capa_1" xmlns="http://www.w3.org/2000/svg" xmlns:xlink="http://www.w3.org/1999/xlink" x="0px" y="0px"
	 viewBox="0 0 170 160" style="enable-background:new 0 0 170 160;" xml:space="preserve">
<style type="text/css">
	.st0{fill:#50B08B;}
</style>
<path class="st0" d="M73,118.1c-2,0-3.9-0.8-5.4-2.2c-1.4-1.4-2.2-3.4-2.2-5.4s0.8-3.9,2.2-5.4l13.5-13.5c0.4-0.4,0.8-0.6,1.3-0.6
	c0.3,0,0.6,0.1,0.9,0.2l0.6,0.3l6.2-6.2l-0.4-0.6c-5-6.9-7.6-14.9-7.6-23.3c0-3.1,0.4-6.4,1.2-9.6l1.1-3.7
	c5.6-16,20.8-26.7,37.7-26.7c9.8,0,19.3,3.7,26.7,10.3l2.7,2.7c6.8,7.4,10.6,17,10.6,27c0,22.1-17.9,40-40,40
	c-8.4,0-16.5-2.6-23.3-7.6l-0.6-0.4L92,99.6l0.3,0.6c0.1,0.3,0.2,0.6,0.2,0.9c0,0.5-0.2,1-0.6,1.3l-13.5,13.5
	C77,117.3,75.1,118.1,73,118.1z M70.3,107.8c-0.7,0.7-1.1,1.7-1.1,2.7s0.4,2,1.1,2.7s1.7,1.1,2.7,1.1s2-0.4,2.7-1.1l12.1-12.1
	l-5.4-5.4L70.3,107.8z M122,25.3c-15.1,0-28.8,9.6-34,23.8l-1,3.7c-0.7,3-1.1,5.9-1.1,8.7c0,20,16.2,36.2,36.2,36.2
	s36.2-16.2,36.2-36.2c0-9-3.4-17.7-9.6-24.4l-2.7-2.7C139.3,28.5,130.8,25.3,122,25.3z M86.5,94.3l2.7,2.7l6-6l-0.6-0.6
	c-0.5-0.5-1-1-1.5-1.5l-0.6-0.6L86.5,94.3z"/>
<path class="st0" d="M122.1,85.6c-1,0-1.8-0.8-1.8-1.8v-3.6l-0.7-0.1c-4.6-0.8-10-4.1-10-10.6c0-1,0.8-1.8,1.8-1.8s1.8,0.8,1.8,1.8
	c0,4.8,4.7,7.4,9.3,7.4c2.4,0,4.5-0.6,6.1-1.8c1.7-1.3,2.5-3,2.5-5.2c0-3.7-3.4-5.3-9-7.4c-5.2-2-11-4.3-11-10.4
	c0-3.2,1.3-5.9,3.8-7.7c1.3-1,3-1.8,4.9-2.2l0.7-0.1v-3.6c0-1,0.8-1.8,1.8-1.8s1.8,0.8,1.8,1.8V42l0.7,0.1c4.3,0.6,9.4,3.5,9.4,9.7
	c0,1-0.8,1.8-1.8,1.8s-1.8-0.8-1.8-1.8c0-1.9-0.8-3.5-2.3-4.7c-1.4-1.1-3.4-1.7-5.5-1.7c-3.9,0-8.1,2.1-8.1,6.7c0,3.5,3.3,5,8.8,7.1
	c5.3,2,11.2,4.4,11.2,10.7c0,3.3-1.4,6.1-3.9,8c-1.6,1.2-3.7,2.1-6,2.4l-0.7,0.1v3.5C123.9,84.8,123.1,85.6,122.1,85.6z"/>
<path class="st0" d="M13.7,146.9c-7,0-12.6-5.7-12.6-12.6c0-7,5.7-12.6,12.6-12.6c0.8,0,1.6,0.1,2.4,0.2l1,0.2l27.8-34.5l-0.5-1
	c-1-1.8-1.5-3.9-1.5-6c0-7,5.7-12.6,12.6-12.6c5.5,0,10.3,3.5,12,8.8l0.5,1.5L84.6,74l0.9,3.5L68,82l-0.2,1
	c-1.2,5.9-6.4,10.2-12.4,10.2c-2.4,0-4.8-0.7-6.9-2l-1.2-0.8l-26.8,33.2l1.3,1.1c2.9,2.4,4.5,5.9,4.5,9.7
	C26.3,141.3,20.6,146.9,13.7,146.9z M13.7,125.3c-5,0-9,4.1-9,9c0,5,4.1,9,9,9s9-4.1,9-9C22.7,129.3,18.6,125.3,13.7,125.3z
	 M55.4,71.6c-5,0-9,4.1-9,9s4.1,9,9,9s9-4.1,9-9S60.4,71.6,55.4,71.6z"/>
<polygon class="st0" points="161.6,18.5 150.8,34.1 147.9,32.1 158.6,16.5 141.3,21.1 140.7,19 162.5,13.2 168.3,34.8 166.1,35.4 
	"/>
<polygon class="st0" points="165.7,36.1 161.1,18.7 162.2,18.4 166.5,34.7 167.6,34.4 162.1,13.8 141.4,19.4 141.7,20.4 158.5,16 
	158.8,17.1 140.9,21.8 140,18.6 162.9,12.5 169,35.2 "/>
<polyline class="st0" points="158.6,15.8 141.3,20.5 140.7,18.3 162.5,12.5 168.3,34.1 166.1,34.7 161.6,17.8 "/>
</svg>
