<?xml version="1.0" encoding="utf-8"?>
<!-- Generator: Adobe Illustrator 21.0.0, SVG Export Plug-In . SVG Version: 6.00 Build 0)  -->
<svg version="1.1" id="Capa_1" xmlns="http://www.w3.org/2000/svg" xmlns:xlink="http://www.w3.org/1999/xlink" x="0px" y="0px"
	 viewBox="0 0 170 160" style="enable-background:new 0 0 170 160;" xml:space="preserve">
<style type="text/css">
	.st0{fill:#4C5BC0;}
	.st1{fill:#65C9D1;}
	.st2{fill:#50B08B;}
	.st3{fill:#86BA54;}
	.st4{fill:#87B742;}
	.st5{fill:#A0A3A4;}
</style>
<g>
	<path class="st1" d="M80.3,96.8c-0.8,0-1.6-0.7-1.8-1.6l-1-8.3l-1.1-0.3c-2.7-0.7-5.4-1.8-8-3.3l-1-0.6l-6.7,5.2
		c-0.3,0.2-0.7,0.4-1.1,0.4c-0.4,0-0.9-0.2-1.2-0.6l-6.3-6.3c-0.7-0.7-0.7-1.7-0.2-2.5l5-6.7l-0.6-1c-1.5-2.6-2.6-5.3-3.4-8
		l-0.3-1.1l-8.4-1c-0.9-0.2-1.5-0.9-1.5-1.3v-9c0-0.8,0.7-1.6,1.6-1.8l8.3-1l0.3-1.1c0.7-2.7,1.8-5.4,3.3-8l0.6-1l-5.2-6.7
		c-0.6-0.7-0.5-1.6,0.2-2.3l6.3-6.3c0.3-0.3,0.9-0.5,1.4-0.5c0.3,0,0.7,0.2,1.1,0.4l6.6,5l1-0.6c2.6-1.5,5.3-2.6,8-3.4l1.1-0.3
		l1-8.4c0.2-0.9,0.9-1.5,1.8-1.5h9c0.8,0,1.6,0.7,1.8,1.6l1,8.3l1.1,0.3c2.7,0.7,5.4,1.8,8,3.3l1,0.6l6.7-5.2
		c0.3-0.2,0.7-0.4,1.1-0.4c0.4,0,0.9,0.2,1.2,0.6l6.3,6.3c0.7,0.6,0.8,1.6,0.2,2.3l-5.2,6.7l0.6,1c1.5,2.6,2.6,5.3,3.3,8l0.3,1.1
		l8.4,1c0.9,0.2,1.5,0.9,1.5,1.8v9c0,0.8-0.7,1.6-1.6,1.8l-8.3,1l-0.3,1.1c-0.7,2.7-1.8,5.4-3.3,8l-0.6,1l5.2,6.7
		c0.6,0.7,0.5,1.6-0.2,2.3l-6.3,6.3c-0.4,0.4-0.7,0.6-1.2,0.6c-0.4,0-0.8-0.1-1.1-0.4l-6.7-5.2l-1,0.6c-2.6,1.5-5.3,2.6-8,3.3
		l-1.1,0.3l-1,8.4c-0.2,0.9-0.9,1.5-1.8,1.5H80.3z M68.7,79.1c3.1,2.1,6.8,3.7,10.9,4.5c0.6,0.2,1.2,0.8,1.4,1.6l1,8h6l1.1-8
		c0.2-0.9,0.7-1.4,1.4-1.6c4.1-0.9,7.8-2.4,10.9-4.5c0.3-0.2,0.7-0.3,1.1-0.3c0.4,0,0.9,0.1,1.2,0.3l6.3,4.8l4.2-4.2l-5-6.5
		c-0.4-0.7-0.3-1.4,0-2.1c2.1-3.1,3.7-6.8,4.5-10.9c0.2-0.6,0.8-1.2,1.6-1.4l8.2-1v-6l-8.2-1.1c-0.8-0.2-1.4-0.7-1.6-1.4
		c-0.9-4.1-2.4-7.8-4.5-10.9c-0.5-0.7-0.5-1.8-0.1-2.3l4.9-6.4l-4.2-4.2l-6.5,5c-0.4,0.2-0.7,0.3-1.1,0.3c-0.3,0-0.7-0.1-1-0.3
		c-3.1-2.1-6.8-3.7-10.9-4.5c-0.6-0.2-1.2-0.8-1.4-1.6l-1-8h-6l-1.1,8c-0.2,0.9-0.7,1.4-1.4,1.6c-4.1,0.9-7.8,2.4-10.9,4.5
		c-0.4,0.3-0.8,0.4-1.1,0.4c-0.4,0-0.7-0.1-0.9-0.3l-6.6-5.1l-4.2,4.2l5,6.5c0.4,0.7,0.3,1.4,0,2.1c-2.1,3.1-3.7,6.8-4.5,10.9
		c-0.2,0.6-0.8,1.2-1.6,1.4l-8.2,1v6l8.4,1.3c0.6,0.1,1.4,0.5,1.6,1.4c0.9,4.1,2.4,7.8,4.5,10.9c0.5,0.7,0.5,1.5,0.1,2.1l-5.1,6.6
		l4.2,4.2l6.5-5c0.4-0.2,0.7-0.3,1.1-0.3C68,78.9,68.3,78.9,68.7,79.1z"/>
	<path class="st1" d="M84.8,74.5c-11,0-19.9-8.9-19.9-19.9c0-11,8.9-19.9,19.9-19.9s19.9,8.9,19.9,19.9
		C104.7,65.6,95.8,74.5,84.8,74.5z M84.8,38.4c-9.2,0-16.4,7.2-16.4,16.4c0,9,7.4,16.4,16.4,16.4s16.4-7.4,16.4-16.4
		C101.2,45.6,94,38.4,84.8,38.4z"/>
	<path class="st1" d="M107.7,146.8c-4.3,0-8.3-2.5-10.2-6.3l-0.5-1.1l-1.2,0.2c-3.6,0.5-7.1,0.8-10.6,0.8s-7-0.2-10.6-0.8l-1.2-0.2
		l-0.5,1.1c-1.9,3.8-5.9,6.3-10.2,6.3c-6.5,0-11.6-5-11.6-11.4c0-0.8,0-1.7,0.1-2.5l0.2-1.2l-1.1-0.6c-6.7-3.8-12.4-8.9-16.7-14.9
		l-0.7-0.9l-1.1,0.3c-0.8,0.2-1.6,0.3-2.5,0.3c-6.5,0-11.6-5-11.6-11.4c0-5.2,3.5-9.7,8.6-11.1l1.2-0.3V54.8c0-1.1,0.7-1.8,1.8-1.8
		h8c1.1,0,1.8,0.7,1.8,1.8c0,1.1-0.7,1.8-1.8,1.8h-6.6v36.6l1.2,0.3c5,1.4,8.6,6.1,8.6,11.1c0,3.2-1.3,6.1-3.7,8.4l-1.1,1l0.9,1.2
		c3.7,5,8.7,9.4,14.8,13.1l1.2,0.7l0.9-1c1.5-1.6,3.4-2.7,5.5-3.3l1.2-0.4v-32c0-1.1,0.7-1.8,1.8-1.8s1.8,0.7,1.8,1.8v32l1.3,0.3
		c4.9,1.3,8.2,5.3,8.5,10.2l0.1,1.4l1.4,0.2c3.2,0.5,6.5,0.7,9.8,0.7c3.3,0,6.6-0.2,9.8-0.7l1.4-0.2l0.1-1.4
		c0.3-4.8,3.7-8.9,8.3-10.2l1.2-0.3v-32c0-1.1,0.7-1.8,1.8-1.8s1.8,0.7,1.8,1.8v32l1.2,0.4c2.1,0.6,3.9,1.7,5.5,3.3l0.9,1l1.2-0.7
		c6.4-3.7,11.8-8.7,15.7-14.3l0.9-1.3l-1.2-1c-2.8-2.3-4.4-5.6-4.4-9c0-5.2,3.5-9.7,8.6-11.1l1.2-0.3V56.5H132
		c-1.1,0-1.8-0.7-1.8-1.8c0-1.1,0.7-1.8,1.8-1.8h8.4c1.1,0,1.8,0.7,1.8,1.8v36.3l1.2,0.3c4.9,1.4,8.6,5.9,9,10.9
		c0,6.3-5.2,11.3-11.6,11.3c-0.5,0-1,0-1.6-0.1l-1-0.1l-0.6,0.9c-4.2,6.5-10.2,12.2-17.9,16.7l-1.1,0.7l0.3,1.2
		c0.2,0.8,0.3,1.6,0.3,2.4C119.2,141.7,114,146.8,107.7,146.8z M107.5,127.8c-4.5,0-8,3.4-8,7.8c0,4.2,3.7,7.8,8,7.8
		c4.2,0,7.8-3.6,7.8-7.8C115.3,131.3,111.8,127.8,107.5,127.8z M61.9,127.8c-4.3,0-7.8,3.5-7.8,7.8c0,4.2,3.7,7.8,8,7.8
		c3.7,0,7-2.6,7.6-6.2c0.5-2.3-0.1-4.7-1.6-6.5C66.7,128.9,64.4,127.8,61.9,127.8z M29.3,96.8c-4.5,0-8,3.4-8,7.8
		c0,4.2,3.7,7.8,8,7.8c4.5,0,8-3.4,8-7.8C37.3,100.4,33.6,96.8,29.3,96.8z M140.3,94.7c-4.5,0-8,3.4-8,7.8c0,4.2,3.7,7.8,8,7.8
		c4.5,0,8-3.4,8-7.8S144.8,94.7,140.3,94.7z"/>
</g>
</svg>
