<?xml version="1.0" encoding="utf-8"?>
<!-- Generator: Adobe Illustrator 21.0.0, SVG Export Plug-In . SVG Version: 6.00 Build 0)  -->
<svg version="1.1" id="Capa_1" xmlns="http://www.w3.org/2000/svg" xmlns:xlink="http://www.w3.org/1999/xlink" x="0px" y="0px"
	 viewBox="0 0 170 160" style="enable-background:new 0 0 170 160;" xml:space="preserve">
<style type="text/css">
	.st0{fill:#4C5BC0;}
	.st1{fill:#65C9D1;}
	.st2{fill:#50B08B;}
	.st3{fill:#86BA54;}
	.st4{fill:#87B742;}
	.st5{fill:#A0A3A4;}
</style>
<g>
	<path class="st0" d="M85,144.5c-27.2,0-51.7-17.2-60.8-42.9L24,101l-7.3-4.2c-3.3-1.8-5.1-4.5-5.1-7.5c0-2.5,1.4-4.9,4-6.7l1.9-1.4
		l-2-1.4c-2.5-1.8-3.9-4.2-3.9-6.7c0-2.9,1.8-5.6,5.1-7.5l6.4-3.7l0.2-0.6c6.3-20.9,22.6-37,43.5-43.2c6-1.8,12.1-2.6,18.2-2.6
		c28.2,0,53.5,18.8,61.7,45.8l0.2,0.6l6.4,3.7c3.3,1.8,5.1,4.5,5.1,7.5c0,2.6-1.4,4.9-4,6.7l-2,1.4l1.9,1.4c2.6,1.9,4,4.2,4,6.7
		c0,2.9-1.8,5.6-5.1,7.5L146,101l-0.2,0.6c-6.6,18.5-21,32.9-39.6,39.3C99.3,143.3,92.2,144.5,85,144.5z M31.4,108.9
		c10.7,19.7,31.2,32,53.6,32c22.4,0,43-12.3,53.7-32l2.9-5.3l-45.4,26.2c-3.3,1.8-7,2.7-10.8,2.7l-0.4,0l-0.3,0
		c-3.7,0-7.5-0.9-10.8-2.7l-45.3-26.2L31.4,108.9z M18.5,85c-2.1,1.2-3.3,2.8-3.3,4.4c0,1.6,1.2,3.2,3.3,4.3l3.1,1.9l5.5,3.2
		l48.5,28c2.9,1.5,6.1,2.2,9.3,2.2c3.2,0,6.4-0.8,9.3-2.2l48.5-28.1l5.6-3.2l3.2-1.8c2-1.1,3.2-2.8,3.2-4.3c0-1.6-1.2-3.1-3.3-4.4
		l-2.9-1.7l-3.6,2.1l-48.9,28.2c-3.3,1.8-7,2.7-10.8,2.7l-0.4,0l-0.3,0c-3.7,0-7.5-0.9-10.8-2.7L24.9,85.4l-3.6-2.1L18.5,85z
		 M84.6,33.5c-3.1,0-6.2,0.8-8.9,2.2L26.3,64.3L21,67.3l-2.6,1.5c-2.7,1.6-3.3,3.2-3.3,4.4c0,1.6,1.2,3.2,3.3,4.3l1.3,0.8l4.4,2.6
		l1.4,0.8l50,28.9c2.9,1.5,6.1,2.2,9.3,2.2c3.2,0,6.4-0.8,9.3-2.2l50-28.9l1.3-0.8l5.9-3.4c2-1.2,3.2-2.8,3.3-4.4
		c0-1.6-1.2-3.1-3.3-4.4l-2.6-1.5l-5.2-3L94.3,35.7c-2.8-1.4-5.8-2.2-8.9-2.2l-0.4,0L84.6,33.5z M85,29.9c3.9,0,7.7,0.9,11.2,2.7
		l46.5,26.9l-2.2-4.9C130.4,33,108.7,19.1,85,19.1c-23.7,0-45.4,14-55.3,35.5l-2.2,4.9l46.5-26.9C77.3,30.8,81.1,29.9,85,29.9z"/>
</g>
</svg>
