<?xml version="1.0" encoding="utf-8"?>
<!-- Generator: Adobe Illustrator 21.0.0, SVG Export Plug-In . SVG Version: 6.00 Build 0)  -->
<svg version="1.1" id="Capa_1" xmlns="http://www.w3.org/2000/svg" xmlns:xlink="http://www.w3.org/1999/xlink" x="0px" y="0px"
	 viewBox="0 0 170 160" style="enable-background:new 0 0 170 160;" xml:space="preserve">
<style type="text/css">
	.st0{fill:#4C5BC0;}
	.st1{fill:#65C9D1;}
	.st2{fill:#50B08B;}
	.st3{fill:#86BA54;}
	.st4{fill:#87B742;}
	.st5{fill:#A0A3A4;}
</style>
<g>
	<path class="st2" d="M27.2,147.8c-2.7,0-5.2-1-7.1-2.9c-1.9-1.9-2.9-4.4-2.9-7.1c0-2.7,1-5.2,2.9-7.1l19.1-19.1
		c0.4-0.4,0.8-0.6,1.3-0.6c0.3,0,0.6,0.1,0.9,0.2l1.3,0.7l9.7-9.7l-1-1.4C44.5,91.2,40.8,80,40.8,68.2c0-4.4,0.6-8.9,1.7-13.5
		l1.5-5.2C52,27.3,73.2,12.2,96.8,12.2c13.8,0,27,5.1,37.3,14.4l3.8,3.8c9.5,10.4,14.8,23.8,14.8,37.8c0,30.9-25.1,56-56,56
		c-11.8,0-23-3.7-32.6-10.6l-1.4-1l-9.7,9.7l0.7,1.3c0.1,0.3,0.2,0.6,0.2,0.9c0,0.5-0.2,1-0.6,1.3l-19.1,19.1
		C32.4,146.8,29.9,147.8,27.2,147.8z M22.8,133.4c-1.2,1.2-1.8,2.7-1.8,4.4c0,1.7,0.6,3.2,1.8,4.4c1.2,1.2,2.7,1.8,4.4,1.8
		c1.7,0,3.2-0.6,4.4-1.8l17.8-17.8l-8.8-8.8L22.8,133.4z M96.8,16c-21.8,0-41.5,13.8-49,34.4l-1.6,5.2c-1.1,4.3-1.6,8.5-1.6,12.6
		c0,28.8,23.4,52.2,52.2,52.2S149,97,149,68.2c0-13-4.9-25.5-13.8-35.2l-3.9-3.8C121.7,20.6,109.5,16,96.8,16z M45.2,114.8l5,5
		l9.6-9.6l-1.5-1.4c-0.7-0.7-1.4-1.3-2-2l-1.4-1.5L45.2,114.8z"/>
	<g>
		<path class="st2" d="M62.8,68h-4c0-21,17.1-38.1,38.1-38.1v4C78.1,33.9,62.8,49.2,62.8,68z"/>
	</g>
</g>
</svg>
