<?xml version="1.0" encoding="utf-8"?>
<!-- Generator: Adobe Illustrator 19.2.1, SVG Export Plug-In . SVG Version: 6.00 Build 0)  -->
<svg version="1.1" id="Capa_1" xmlns="http://www.w3.org/2000/svg" xmlns:xlink="http://www.w3.org/1999/xlink" x="0px" y="0px"
	 viewBox="0 0 102.4 102.4" style="enable-background:new 0 0 102.4 102.4;" xml:space="preserve">
<style type="text/css">
	.st0{clip-path:url(#SVGID_2_);}
	.st1{fill:#FFFFFF;}
</style>
<title>edit-document</title>
<g>
	<defs>
		<rect id="SVGID_1_" width="103" height="103"/>
	</defs>
	<clipPath id="SVGID_2_">
		<use xlink:href="#SVGID_1_"  style="overflow:visible;"/>
	</clipPath>
	<g class="st0">
		<path class="st1" d="M6.4,89.6V12.8c0-3.5,2.9-6.4,6.4-6.4h64c3.5,0,6.4,2.9,6.4,6.4v37.6l6.4-6.4V12.8C89.6,5.7,83.9,0,76.8,0
			h-64C5.7,0,0,5.7,0,12.8v76.8c0,7.1,5.7,12.8,12.8,12.8H48V96H12.8C9.3,96,6.4,93.1,6.4,89.6L6.4,89.6z M70.4,19.2H19.2v6.4h51.2
			L70.4,19.2L70.4,19.2z M70.4,32H19.2v6.4h51.2L70.4,32L70.4,32z M70.4,44.8H19.2v6.4h51.2L70.4,44.8L70.4,44.8z M19.2,64h25.6
			v-6.4H19.2V64z M100.5,57.6L96,53.1c-2.5-2.5-6.6-2.5-9,0L59.5,80.6c-1.3,1.3-5.1,6.1-5.1,7.7l-3.2,14.1l14.1-3.2
			c0,0,6.5-3.8,7.7-5.1l27.5-27.5C103,64.2,103,60.1,100.5,57.6L100.5,57.6L100.5,57.6z M70.8,91.9c-1,0.8-2.1,1.5-3.1,2.2l-8.3-8.3
			c0.7-1,1.5-2,2.4-2.9l20.7-20.7l9,9L70.8,91.9z"/>
	</g>
</g>
</svg>
