<?xml version="1.0" encoding="utf-8"?>
<!-- Generator: Adobe Illustrator 21.0.0, SVG Export Plug-In . SVG Version: 6.00 Build 0)  -->
<svg version="1.1" id="Capa_1" xmlns="http://www.w3.org/2000/svg" xmlns:xlink="http://www.w3.org/1999/xlink" x="0px" y="0px"
	 viewBox="0 0 170 160" style="enable-background:new 0 0 170 160;" xml:space="preserve">
<style type="text/css">
	.st0{fill:#4C5BC0;}
	.st1{fill:#65C9D1;}
	.st2{fill:#50B08B;}
	.st3{fill:#86BA54;}
	.st4{fill:#87B742;}
	.st5{fill:#A0A3A4;}
</style>
<g>
	<path class="st1" d="M78.9,147.1c-3.2,0-5.9-2.3-6.4-5.4l-1.8-10.9l-1.2-0.4c-3.1-1-6.1-2.2-8.8-3.6l-1.1-0.6l-9.1,6.5
		c-1.1,0.8-2.4,1.2-3.8,1.2c-1.7,0-3.4-0.7-4.6-1.9l-8.6-8.6c-2.3-2.3-2.6-5.8-0.7-8.4l6.4-8.9l-0.6-1.1c-1.6-2.9-2.8-5.9-3.8-9
		l-0.4-1.2l-11-1.9c-3.2-0.5-5.5-3.2-5.5-6.4V74.2c0-3.2,2.3-5.9,5.4-6.4l10.8-1.8l0.4-1.2c1-3.2,2.2-6.2,3.7-9.1l0.6-1.1l-6.5-9.1
		c-1.9-2.6-1.6-6.1,0.7-8.4l8.6-8.6c1.2-1.2,2.9-1.9,4.6-1.9c1.4,0,2.7,0.4,3.8,1.2l9,6.4l1.1-0.6c2.9-1.6,5.9-2.8,9-3.8l1.2-0.4
		l1.9-11c0.5-3.2,3.2-5.5,6.4-5.5h12.1c3.2,0,5.9,2.3,6.4,5.4l1.8,10.8l1.2,0.4c3.2,0.9,6.3,2.2,9.4,3.9l1.1,0.6l9-6.4
		c1.1-0.8,2.4-1.2,3.8-1.2c1.7,0,3.4,0.7,4.6,1.9l8.6,8.6c2.3,2.3,2.6,5.8,0.7,8.4l-6.4,9l0.6,1.1c1.5,2.9,2.8,5.9,3.8,9.1l0.4,1.2
		l10.9,1.9c3.2,0.5,5.4,3.2,5.4,6.4v12.2c0,3.2-2.3,5.9-5.4,6.4l-10.9,1.8l-0.4,1.2c-0.9,3-2.2,6-3.8,9.1l-0.6,1.1l6.4,9
		c1.9,2.6,1.6,6.1-0.7,8.4l-8.6,8.6c-1.2,1.2-2.9,1.9-4.6,1.9c-1.4,0-2.7-0.4-3.8-1.2l-9-6.4l-1.1,0.6c-2.9,1.5-5.9,2.8-9.1,3.8
		l-1.2,0.4l-1.9,10.9c-0.5,3.2-3.2,5.5-6.4,5.5H78.9z M59.5,122.1c0.3,0,0.7,0.1,1,0.3c3.9,2.2,8.1,3.9,12.3,5
		c0.7,0.2,1.3,0.8,1.4,1.5l2,12.1c0.2,1.3,1.4,2.3,2.7,2.3h12.2c1.4,0,2.5-1,2.7-2.3l2-12.1c0.1-0.7,0.7-1.3,1.4-1.5
		c4.5-1.2,8.7-2.9,12.6-5.2c0.3-0.2,0.6-0.3,1-0.3c0.4,0,0.8,0.1,1.1,0.3l10,7.1c0.4,0.3,1,0.5,1.6,0.5c1,0,1.6-0.4,2-0.8l8.6-8.6
		c0.9-0.9,1.1-2.5,0.3-3.6l-7.1-10.1c-0.4-0.6-0.5-1.4-0.1-2.1c2.3-3.9,4.1-8.1,5.2-12.6c0.2-0.7,0.8-1.3,1.5-1.4l12.1-2
		c0.6-0.1,1.1-0.3,1.5-0.7h0.9l0-2V73.9c0-1.4-1-2.5-2.3-2.7l-12.1-2c-0.7-0.1-1.3-0.7-1.5-1.4c-1.2-4.5-2.9-8.7-5.2-12.6
		c-0.4-0.6-0.3-1.4,0.1-2l7.1-10c0.8-1.2,0.6-2.6-0.3-3.6l-8.6-8.6c-0.5-0.5-1.2-0.8-2-0.8c-0.5,0-1,0.1-1.5,0.4l-0.1,0.1l-10,7.2
		c-0.3,0.2-0.7,0.3-1.1,0.3c-0.3,0-0.7-0.1-1-0.3c-4-2.4-8.4-4.2-12.9-5.3c-0.7-0.2-1.3-0.8-1.4-1.5l-2-12c-0.2-1.3-1.4-2.3-2.7-2.3
		H78.7c-1.4,0-2.5,1-2.7,2.3l-2.1,12.2c-0.1,0.7-0.7,1.3-1.4,1.5c-4.4,1.1-8.6,2.9-12.6,5.3c-0.3,0.2-0.6,0.3-1,0.3
		c-0.4,0-0.8-0.1-1.1-0.3l-9.9-7.1c-0.4-0.3-1-0.5-1.6-0.5c-0.9,0-1.6,0.4-2,0.8l-8.6,8.6c-0.9,0.9-1.1,2.5-0.3,3.6l7.2,10.1
		c0.4,0.6,0.5,1.4,0.1,2c-2.3,3.9-4,8.1-5.1,12.6c-0.2,0.7-0.8,1.3-1.5,1.4l-12,2c-1.3,0.2-2.3,1.4-2.3,2.7v12.1
		c0,1.4,1,2.5,2.3,2.7l12.2,2.1c0.7,0.1,1.3,0.7,1.5,1.4c1.1,4.4,2.9,8.6,5.3,12.6c0.4,0.6,0.3,1.5-0.1,2.1l-7.1,9.9
		c-0.8,1.2-0.6,2.6,0.3,3.6l8.6,8.6c0.5,0.5,1.2,0.8,2,0.8c0.5,0,1-0.1,1.5-0.4l0.1-0.1l10.1-7.2C58.7,122.2,59.1,122.1,59.5,122.1z
		"/>
	<path class="st1" d="M85,107.8c-15.3,0-27.8-12.5-27.8-27.8S69.7,52.2,85,52.2s27.8,12.5,27.8,27.8S100.3,107.8,85,107.8z M85,56
		c-13.3,0-24,10.8-24,24s10.8,24,24,24s24-10.8,24-24S98.3,56,85,56z"/>
</g>
</svg>
