<?xml version="1.0" encoding="utf-8"?>
<!-- Generator: Adobe Illustrator 19.2.1, SVG Export Plug-In . SVG Version: 6.00 Build 0)  -->
<svg version="1.1" id="Capa_1" xmlns="http://www.w3.org/2000/svg" xmlns:xlink="http://www.w3.org/1999/xlink" x="0px" y="0px"
	 viewBox="0 0 57.6 78.2" style="enable-background:new 0 0 57.6 78.2;" xml:space="preserve">
<style type="text/css">
	.st0{fill:#FFFFFF;}
</style>
<title>filled-point</title>
<path class="st0" d="M28.8,0C12.9,0,0,12.9,0,28.8c0,4.1,0.8,8.1,2.5,11.8c7.2,15.7,21,32.4,25,37.1c0.6,0.7,1.6,0.7,2.3,0.2
	c0.1-0.1,0.1-0.1,0.2-0.2c4-4.7,17.9-21.3,25-37.1c1.7-3.7,2.5-7.7,2.5-11.8C57.5,12.9,44.6,0,28.8,0L28.8,0z M28.8,43.7
	c-8.3,0-14.9-6.7-14.9-15c0-8.3,6.7-14.9,15-14.9c8.2,0,14.9,6.7,14.9,14.9C43.8,37,37,43.7,28.8,43.7L28.8,43.7z"/>
</svg>
