<?xml version="1.0" encoding="utf-8"?>
<!-- Generator: Adobe Illustrator 19.2.1, SVG Export Plug-In . SVG Version: 6.00 Build 0)  -->
<svg version="1.1" xmlns="http://www.w3.org/2000/svg" xmlns:xlink="http://www.w3.org/1999/xlink" x="0px" y="0px"
	 viewBox="0 0 409.6 409.6" style="enable-background:new 0 0 409.6 409.6;" xml:space="preserve">
<style type="text/css">
	.st0{display:none;}
	.st1{display:inline;}
	.st2{fill:#FFFFFF;}
</style>
<g id="Capa_2" class="st0">
	<rect x="-71" y="-52" class="st1" width="540" height="499"/>
</g>
<g id="Capa_1">
	<title>gear-black</title>
	<path class="st2" d="M409.6,230.4v-51.2l-55.3-9.2c-3.8-16.4-10.3-32-19.2-46.2l32.6-45.7l-36.2-36.2l-45.7,32.6
		c-14.3-8.9-29.9-15.4-46.2-19.2L230.4,0h-51.2L170,55.3c-16.4,3.8-32,10.3-46.2,19.2L78.1,41.9L41.9,78.1l32.6,45.7
		C65.6,138,59.1,153.6,55.3,170L0,179.2v51.2l55.3,9.2c3.8,16.4,10.3,32,19.2,46.2l-32.6,45.7l36.2,36.2l45.7-32.6
		c14.2,8.9,29.9,15.4,46.2,19.2l9.2,55.3h51.2l9.2-55.3c16.4-3.8,32-10.3,46.2-19.2l45.7,32.6l36.2-36.2l-32.7-45.7
		c8.9-14.2,15.4-29.9,19.2-46.2L409.6,230.4z M204.8,307.2c-56.6,0-102.4-45.8-102.4-102.4c0-56.6,45.8-102.4,102.4-102.4
		s102.4,45.8,102.4,102.4C307.2,261.4,261.4,307.2,204.8,307.2L204.8,307.2z"/>
</g>
</svg>
