<?xml version="1.0" encoding="utf-8"?>
<!-- Generator: Adobe Illustrator 21.0.0, SVG Export Plug-In . SVG Version: 6.00 Build 0)  -->
<svg version="1.1" id="Capa_1" xmlns="http://www.w3.org/2000/svg" xmlns:xlink="http://www.w3.org/1999/xlink" x="0px" y="0px"
	 viewBox="0 0 170 160" style="enable-background:new 0 0 170 160;" xml:space="preserve">
<style type="text/css">
	.st0{fill:#4C5BC0;}
	.st1{fill:#65C9D1;}
	.st2{fill:#50B08B;}
	.st3{fill:#86BA54;}
	.st4{fill:#87B742;}
	.st5{fill:#A0A3A4;}
</style>
<g>
	<path class="st0" d="M29.8,147.2c-6.4,0-11.6-5.2-11.6-11.6V24.4c0-6.4,5.2-11.5,11.6-11.5h62.4l0.2,0c0.1,0,0.2,0,0.3,0
		c0.5,0,1,0.2,1.3,0.6l6.7,6.7h35.5c1.1,0,1.9,0.9,1.9,1.9v29.4h2c3.1,0,5.9,1.1,8,3.1c4.7,4.4,4.9,11.7,0.5,16.4l-10.6,11l0,53.7
		c0,6.4-5.2,11.6-11.6,11.6l0,0L29.8,147.2z M29.8,16.7c-4.3,0-7.8,3.5-7.8,7.8v111.2c0,4.3,3.5,7.8,7.8,7.8l87.5,0l-1.3-2.9
		c-0.7-1.5-1.1-3.2-1.1-4.9V106l-11.5,12c-0.3,0.3-0.7,0.5-1.1,0.6l-15.3,2c0,0-0.4,0-0.5,0c-0.5,0-1-0.3-1.3-0.7
		c-0.3-0.4-0.5-0.9-0.4-1.4l1.4-15.4c0-0.4,0.2-0.8,0.5-1.1L115,72.4l-0.1-0.9c0-0.1,0-0.1,0-0.2V40.8H92.6c-1.1,0-1.9-0.9-1.9-1.9
		V16.7H29.8z M118.7,102v33.6c0,4.3,3.5,7.8,7.8,7.8c4.3,0,7.8-3.5,7.8-7.8V85.8L118.7,102z M89.9,103.9l-1.1,12.5l12.3-1.6
		l36.7-38.3l-11.2-10.8L89.9,103.9z M140.4,55c-2.2,0-4.3,0.9-5.7,2.5l-5.4,5.6l11.2,10.8c0,0,5.6-5.8,5.7-5.9
		c1.4-1.5,2.1-3.5,2-5.6c-0.1-2.1-1-4-2.5-5.4C144.2,55.7,142.3,55,140.4,55z M118.2,37.7c0.4,0.4,0.6,0.9,0.5,1.5l0,0.2v29.1
		l13.2-13.7c0.5-0.5,1-0.9,1.5-1.3l0.8-0.6v-29h-29.7L118.2,37.7z M94.6,37h17.2L94.6,20.1V37z"/>
	<path class="st0" d="M39.1,48.1c-1.1,0-1.9-0.9-1.9-1.9s0.9-1.9,1.9-1.9H81c1.1,0,1.9,0.9,1.9,1.9S82,48.1,81,48.1H39.1z"/>
	<path class="st0" d="M38.3,67.4c-1.1,0-1.9-0.9-1.9-1.9c0-1.1,0.9-1.9,1.9-1.9h28.5c1.1,0,1.9,0.9,1.9,1.9c0,1.1-0.9,1.9-1.9,1.9
		H38.3z"/>
	<path class="st0" d="M39.1,86.7c-1.1,0-1.9-0.9-1.9-1.9s0.9-1.9,1.9-1.9H81c1.1,0,1.9,0.9,1.9,1.9S82,86.7,81,86.7H39.1z"/>
	<path class="st0" d="M38.3,106.1c-1.1,0-1.9-0.9-1.9-1.9c0-1.1,0.9-1.9,1.9-1.9h28.5c1.1,0,1.9,0.9,1.9,1.9c0,1.1-0.9,1.9-1.9,1.9
		H38.3z"/>
</g>
</svg>
