<?xml version="1.0" encoding="utf-8"?>
<!-- Generator: Adobe Illustrator 21.0.0, SVG Export Plug-In . SVG Version: 6.00 Build 0)  -->
<svg version="1.1" id="Capa_1" xmlns="http://www.w3.org/2000/svg" xmlns:xlink="http://www.w3.org/1999/xlink" x="0px" y="0px"
	 viewBox="0 0 170 160" style="enable-background:new 0 0 170 160;" xml:space="preserve">
<style type="text/css">
	.st0{fill:#4C5BC0;}
	.st1{fill:#65C9D1;}
	.st2{fill:#50B08B;}
	.st3{fill:#86BA54;}
	.st4{fill:#87B742;}
	.st5{fill:#A0A3A4;}
</style>
<g>
	<path class="st4" d="M85,69.7c-11.6,0-21-9.4-21.1-20.9c-0.1-11.6,9.3-21.1,20.9-21.2c11.6,0,21.1,9.4,21.2,20.9
		C106.1,60.1,96.6,69.6,85,69.7L85,69.7z M84.7,31.5c-4.5,0-8.8,1.8-12,5.1c-3.2,3.2-4.9,7.5-4.9,12c0.1,9.3,7.7,16.9,17,16.9
		c9.4,0,17-7.7,17-17c-0.1-9.4-7.7-17-17-17h0H84.7z"/>
	<path class="st4" d="M85,69.3c-11.3,0-20.6-9.2-20.7-20.5C64.2,37.3,73.5,28,84.9,27.9c11.4,0,20.7,9.2,20.8,20.5
		C105.7,59.9,96.4,69.2,85,69.3z M82.8,31.2c-3.9,0.5-7.5,2.2-10.4,5.1c-3.3,3.3-5,7.7-5,12.3c0.1,9.5,7.9,17.3,17.4,17.3
		c9.6,0,17.4-7.8,17.4-17.4c-0.1-8.9-6.8-16.3-15.4-17.3v-0.3l-4-0.1L82.8,31.2z"/>
	<path class="st4" d="M85,68.9c-11.1,0-20.2-9-20.3-20.1c-0.1-11.2,9-20.3,20.1-20.4c11.2,0,20.3,9,20.4,20.1
		C105.3,59.7,96.2,68.8,85,68.9L85,68.9z M82.4,30.9c-3.9,0.5-7.5,2.3-10.3,5.1c-3.3,3.4-5.2,7.9-5.1,12.6c0.1,9.7,8,17.7,17.8,17.7
		c9.8-0.1,17.8-8,17.8-17.8c-0.1-9-6.7-16.4-15.4-17.6v-1.5l-4.7-0.1L82.4,30.9z"/>
	<path class="st4" d="M17.7,148.2c-0.3,0-0.5,0-0.8-0.1c-0.5-0.2-0.9-0.6-1.2-1.1c-0.2-0.5-0.3-1.1-0.1-1.6l18.4-54.2
		c0.3-0.9,1.1-1.4,2-1.4h27L54,77.5c-6-7.8-9-17.6-8.5-27.4c1.4-21.5,18.9-38.3,39.9-38.3c20.9,0,38.4,16.8,39.9,38.3
		c0.5,9.8-2.5,19.6-8.5,27.4l-9.2,12.2h27.7c1,0,1.8,0.6,2.1,1.5l16.9,54.2c0.1,0.2,0.1,0.5,0.1,0.7c-0.1,1.1-1,2-2.1,2l0,0
		L17.7,148.2z M87.9,144h61.5l-7.7-24.8h-33.9V115h32.5l-6.6-21h-29.3L87,117.2c-0.1,0.2-0.3,0.3-0.4,0.4c-0.4,0.3-0.8,0.4-1.3,0.4
		c-0.7,0-1.3-0.3-1.7-0.8L66.2,94H37.7l-7.2,21.1h32v4.2H29.1L20.7,144h63v-16.7h4.2V144z M85.4,16c-20.5,0-34.2,17.2-35.6,33.8
		l0,0.6C49.2,59.2,51.9,68,57.3,75l28,37.4L113.4,75c5.4-7,8.1-15.8,7.6-24.6C119.9,33.5,106.2,16,85.4,16z"/>
	<path class="st4" d="M17.7,147.8c-0.2,0-0.4,0-0.6-0.1c-0.4-0.2-0.8-0.5-1-0.9c-0.2-0.4-0.2-0.9,0-1.3l18.4-54.2
		c0.2-0.7,0.9-1.2,1.6-1.2h27.8l-9.6-12.9c-5.9-7.8-8.9-17.4-8.4-27.2c1.4-21.2,18.7-37.9,39.5-37.9c20.7,0,38,16.7,39.5,37.9
		c0.5,9.7-2.5,19.4-8.4,27.2l-9.6,12.9h28.5c0.8,0,1.5,0.5,1.7,1.2l16.9,54.2c0.1,0.2,0.1,0.4,0.1,0.6c0,0.9-0.8,1.6-1.7,1.6l0,0
		L17.7,147.8z M87.4,144.4h62.5l-8-25.6h-33.8v-3.4h32.7L134,93.6h-29.8L86.7,117c-0.1,0.1-0.2,0.2-0.3,0.3c-0.3,0.2-0.6,0.3-1,0.3
		c-0.5,0-1-0.3-1.4-0.7L66.4,93.6h-29L30,115.5h32.2v3.4H28.8l-8.7,25.5H84v-16.7h3.4V144.4z M85.4,15.6c-20.7,0-34.6,17.4-36,34.1
		l0,0.6c-0.5,9,2.2,17.8,7.7,24.9l28.3,37.8l28.4-37.9c5.4-7.1,8.1-16,7.7-24.9C120.3,33.3,106.5,15.6,85.4,15.6z"/>
	<path class="st4" d="M17.7,147.4c-0.2,0-0.3,0-0.5-0.1c-0.3-0.1-0.6-0.4-0.7-0.7c-0.1-0.3-0.2-0.7,0-1l18.4-54.2
		c0.2-0.5,0.7-0.9,1.2-0.9h28.6L54.6,77c-5.9-7.7-8.8-17.2-8.3-26.9c1.4-21,18.6-37.5,39-37.5c20.5,0,37.6,16.5,39.1,37.6
		c0.5,9.7-2.4,19.2-8.3,26.9L106,90.6h29.3c0.6,0,1.1,0.3,1.3,0.9l16.9,54.2c0,0.1,0.1,0.3,0.1,0.5c0,0.7-0.6,1.2-1.3,1.2l0,0
		L17.7,147.4z M87,144.8h63.4l-8.2-26.4h-33.7v-2.6h32.8l-7.1-22.7H104l-17.6,23.6c-0.1,0.1-0.2,0.2-0.3,0.3
		c-0.2,0.2-0.5,0.3-0.8,0.3c-0.4,0-0.8-0.2-1-0.5L66.7,93.2H37.2l-7.8,22.7h32.4v2.6H28.5l-9,26.3h64.9v-16.7H87V144.8z M85.4,15.2
		c-21,0-35,17.5-36.4,34.5l0,0.6c-0.5,9,2.3,18,7.8,25.2l28.7,38.3l28.7-38.3c5.5-7.2,8.2-16.1,7.7-25.2
		C120.7,33,106.7,15.2,85.4,15.2z"/>
</g>
</svg>
