<?xml version="1.0" encoding="utf-8"?>
<!-- Generator: Adobe Illustrator 19.2.1, SVG Export Plug-In . SVG Version: 6.00 Build 0)  -->
<svg version="1.1" id="Capa_1" xmlns="http://www.w3.org/2000/svg" xmlns:xlink="http://www.w3.org/1999/xlink" x="0px" y="0px"
	 viewBox="0 0 409.6 409.6" style="enable-background:new 0 0 409.6 409.6;" xml:space="preserve">
<style type="text/css">
	.st0{clip-path:url(#SVGID_2_);}
	.st1{fill:#FFFFFF;}
</style>
<title>magnifier</title>
<g>
	<defs>
		<rect id="SVGID_1_" width="409.9" height="410"/>
	</defs>
	<clipPath id="SVGID_2_">
		<use xlink:href="#SVGID_1_"  style="overflow:visible;"/>
	</clipPath>
	<g class="st0">
		<path class="st1" d="M398.3,344l-94-94c-14,21.8-32.5,40.3-54.3,54.3l94,94c15.2,14.8,39.5,14.4,54.3-0.8
			C412.8,382.7,412.8,359,398.3,344L398.3,344z"/>
	</g>
</g>
<path class="st1" d="M307.2,153.6C307.2,68.8,238.4,0,153.6,0C68.8,0,0,68.8,0,153.6s68.8,153.6,153.6,153.6
	S307.2,238.4,307.2,153.6L307.2,153.6L307.2,153.6z M153.6,268.8c-63.6,0-115.2-51.6-115.2-115.2C38.4,90,90,38.4,153.6,38.4
	c63.6,0,115.2,51.6,115.2,115.2c0,0,0,0,0,0C268.7,217.2,217.2,268.7,153.6,268.8L153.6,268.8z"/>
<path class="st1" d="M64,153.6h25.6c0-35.3,28.7-64,64-64V64C104.1,64.1,64.1,104.1,64,153.6L64,153.6z"/>
</svg>
